<?xml version="1.0" encoding="utf-8"?>
<!-- Generator: Adobe Illustrator 25.0.0, SVG Export Plug-In . SVG Version: 6.00 Build 0)  -->
<svg version="1.1" id="Layer_1" xmlns="http://www.w3.org/2000/svg" xmlns:xlink="http://www.w3.org/1999/xlink" x="0px" y="0px"
	 viewBox="0 0 100 20" style="enable-background:new 0 0 100 20;" xml:space="preserve">
<style type="text/css">
	.st0{fill:#F97316;}
	.st1{fill:#FFFFFF;}
	.st2{fill:#FEFEFE;}
	.st3{fill:none;}
</style>
<path class="st0" d="M7.4,2.3C6.6,1.6,5.6,1.2,4.3,1.2H0.7v12.9h2.9V9.2h0.5c1.4,0,2.5-0.4,3.2-1.1c0.8-0.7,1.2-1.7,1.2-3
	C8.5,4,8.2,3.1,7.4,2.3z M5.1,6.4C4.8,6.6,4.3,6.7,3.6,6.8v-3c0.7,0,1.2,0.1,1.5,0.4c0.3,0.2,0.5,0.6,0.5,1.2
	C5.5,5.8,5.4,6.1,5.1,6.4z"/>
<path class="st0" d="M13.7,11.4V9h2.6V6.4h-2.6V4h3V1.2h-5.9v12.9h5.9v-2.8H13.7z"/>
<path class="st0" d="M28.6,1.2h-1.2c0-0.1,0-0.2,0-0.2l0-0.1L27,0.5l-0.5,0l-0.2,0.3L26.2,1l0,0.1c0,0,0,0.1,0,0.1
	c0,0.1,0,0.2,0,0.3l0,0c-0.1,0-0.1,0.1-0.1,0.1c0,0-0.1,0.1-0.1,0.1c-0.2,0-0.3,0.1-0.4,0.2h0c-0.1,0.2-0.2,0.4-0.1,0.6l0.2,1.2v3.5
	l0.1,1.4L22,1.2h-3v12.9H22V8.4l-0.1-1.6l3.6,7.3h3v-1c-0.2,0-0.3,0-0.5,0c0.2,0,0.3-0.1,0.5-0.1V1.2z M26.6,0.9c0.1,0,0.2,0,0.2,0
	C26.9,0.9,26.9,0.9,27,1V1c0,0.1,0,0.1,0,0.2c0,0.1,0,0.1,0,0.2c0,0,0,0.1,0,0.1c0,0,0,0,0,0c-0.2,0-0.3,0-0.4,0c0,0,0,0,0,0
	c0-0.1,0-0.1,0-0.1c0-0.1,0-0.2,0-0.2c0-0.1,0-0.1,0-0.2c0,0,0,0,0,0C26.5,1,26.6,0.9,26.6,0.9z M26.5,6.8c-0.1,0-0.2,0-0.2-0.1
	c-0.1-0.8-0.2-1.6-0.3-2.5l-0.2-1.7c0-0.2,0.1-0.4,0.2-0.5c0,0,0.1,0,0.2,0c0,0.2,0,0.3,0.1,0.5c-0.1,0-0.2,0.1-0.2,0.1
	c0,0,0,0.1,0,0.2c0.1,1,0.2,2,0.3,3c0,0.1,0,0.2,0,0.3C26.4,6.4,26.5,6.6,26.5,6.8L26.5,6.8z M26.4,2.9c0.1,0,0.2-0.1,0.2-0.1
	l-0.1-0.9c0.1,0,0.1,0,0.2,0l0.4,0c0.1,0,0.2,0,0.2-0.1c0.1,0,0.1,0.1,0.1,0.2c0.1,1.2,0.2,2.4,0.4,3.6c0,0,0,0,0,0c0,0,0,0.1,0,0.1
	c-0.4,0-0.7,0.1-1.1,0.1c0,0,0-0.1,0-0.1v0C26.6,4.8,26.5,3.8,26.4,2.9z M26.8,6.2l1-0.1c0,0,0,0.1,0,0.2l-1,0.1
	C26.8,6.3,26.8,6.2,26.8,6.2z M28,12.9l-0.1-0.2c0.1,0.1,0.2,0,0.2,0L28,12.9z M28.1,12.5c0,0,0,0.1,0,0.1c0,0,0,0,0,0
	c-0.1,0-0.2,0-0.2,0c0-0.1-0.1-0.2-0.1-0.3c-0.2-0.7-0.4-1.5-0.5-2.2C27,9,26.9,7.9,26.8,6.8c0,0,0-0.1,0-0.1v0
	c0.4,0,0.7-0.1,1.1-0.1c0,0,0,0.1,0,0.1v0c0.1,1.3,0.3,2.6,0.3,3.9C28.2,11.2,28.2,11.8,28.1,12.5z"/>
<path class="st0" d="M27.6,5.6l-0.1,0c0-0.3-0.1-0.5-0.1-0.8c-0.1-0.9-0.2-1.8-0.3-2.7c0,0,0,0,0,0c0,0,0-0.1,0.1-0.1
	c0,0,0,0.1,0,0.1c0,0.3,0.1,0.7,0.1,1C27.4,3.9,27.5,4.8,27.6,5.6C27.6,5.6,27.6,5.6,27.6,5.6z"/>
<g>
	<path class="st1" d="M37.6,1.2l-1.8,6.9c-0.1,0.5-0.2,1-0.3,1.7h0c-0.1-0.8-0.3-1.8-0.6-2.9l-1.6-5.7h-3.1l3.9,12.9h2.7l3.9-12.9
		H37.6z"/>
	<path class="st1" d="M45.2,11.4V9h2.6V6.4h-2.6V4h3V1.2h-5.9v12.9h6v-2.8H45.2z"/>
	<path class="st1" d="M57.1,1.2v6.1l0.1,1.4l-3.7-7.5h-3v12.9h2.9V8.4l-0.1-1.6l3.7,7.3h3V1.2H57.1z"/>
	<path class="st1" d="M61.9,1.2v3h2v10h3v-10h2v-3H61.9z"/>
	<path class="st1" d="M78.2,2.6c-0.8-1.2-2-1.8-3.6-1.8c-1.5,0-2.6,0.6-3.5,1.8c-0.8,1.2-1.2,2.8-1.2,4.9c0,2.3,0.4,4,1.2,5.2
		s2,1.8,3.6,1.8c1.5,0,2.7-0.6,3.5-1.8c0.8-1.2,1.2-2.9,1.2-5S79,3.8,78.2,2.6z M75.9,10.7c-0.3,0.5-0.7,0.8-1.3,0.8
		c-0.5,0-0.9-0.3-1.2-0.8C73.2,10.2,73,9.1,73,7.5c0-2.5,0.5-3.7,1.6-3.7c1.1,0,1.7,1.3,1.7,3.8C76.3,9.2,76.2,10.2,75.9,10.7z"/>
	<path class="st1" d="M87.8,8.3c0.6-0.3,1-0.7,1.3-1.3c0.3-0.6,0.5-1.2,0.5-1.8c0-1.2-0.4-2.2-1.2-2.9c-0.8-0.7-1.9-1.1-3.3-1.1
		h-3.4v12.9h2.9V8.3h0l2.4,5.9h3.1L87.8,8.3z M84.6,6.8V3.7c0.7,0,1.2,0.2,1.5,0.4s0.5,0.7,0.5,1.3C86.5,6.3,85.9,6.8,84.6,6.8z"/>
	<path class="st1" d="M96.3,1.2c-0.7,1.8-1.2,3.3-1.6,4.3h0c-0.3-1-0.9-2.4-1.6-4.3h-3.3l3.4,7.1v5.8h3V8.3l3.5-7.1H96.3z"/>
</g>
<path class="st2" d="M97.6,15.8c0,0.1-0.1,0.1-0.1,0.1c-0.1,0-0.1,0-0.1,0.1c-0.2,0.1-0.4,0.1-0.5,0.1c-0.7,0.1-1.3,0.2-1.9,0.2
	c-1.3,0.1-2.5,0.2-3.8,0.3l-13.2,0.7c2.5,0.2,5.1,0.2,7.6,0.2l1.9,0c0.6,0,1.3,0,1.9,0.1c0.2,0,0.3,0.1,0.5,0.1
	c0.1,0,0.3,0.2,0.3,0.4c0,0.4-0.3,0.6-0.5,0.8c-0.5,0.4-1.1,0.6-1.8,0.7c0.6-0.1,1.2-0.3,1.7-0.7c0.2-0.2,0.5-0.4,0.5-0.7
	c0-0.3-0.5-0.4-0.7-0.4c-0.6-0.1-1.2-0.1-1.9,0l-1.9,0c-2.5,0-5.1,0-7.6-0.1l-0.5,0c-0.2,0-0.3,0-0.5-0.1c0,0-0.1-0.1-0.1-0.1
	c0-0.1,0-0.2,0.1-0.2c0,0,0.1,0,0.1,0c0,0,0.1,0,0.1,0l0.2-0.1l0.5-0.1c0.6-0.1,1.3-0.1,1.9-0.2l3.8-0.3l7.6-0.5
	c0.7-0.1,1.5-0.1,2.2-0.2H96c0.3,0,0.6,0,0.9,0c0.1,0,0.1,0,0.2,0c0,0,0,0,0,0c-0.1,0-0.1-0.3-0.1-0.4c0,0,0-0.1,0.1-0.1l0,0
	c-0.1,0-0.2,0.1-0.4,0.1c-0.6,0.1-1.2,0.1-1.9,0.2c-0.5,0-1.1,0.1-1.6,0.1l-4.8,0l-15.2,0l-30.4-0.1l-15.2-0.1c-0.3,0-0.6,0-1-0.1
	c-0.3,0-0.6,0-1-0.2c-0.1,0-0.1-0.1-0.1-0.2c0-0.1,0-0.2,0.1-0.2c0.1-0.1,0.2-0.1,0.2-0.2c0.2-0.1,0.3-0.2,0.5-0.2
	c0.3-0.1,0.6-0.2,1-0.2c1.3-0.2,2.6,0,3.8,0.1c0.6,0.1,1.3,0.2,1.8,0.2c0,0,0,0.1,0,0h0c0,0-0.1,0-0.1-0.1c-0.1,0-0.1-0.1-0.2-0.1
	c-0.1-0.1-0.3-0.1-0.4-0.2c-0.3-0.1-0.6-0.3-0.9-0.4c-0.6-0.2-1.2-0.5-1.8-0.6c-0.3-0.1-0.6-0.1-0.9-0.1v0c0.3,0,0.6,0,0.9,0.1
	c0.6,0.1,1.2,0.3,1.8,0.5c0.3,0.1,0.6,0.2,0.9,0.4c0.1,0.1,0.3,0.1,0.4,0.2c0.1,0,0.1,0.1,0.2,0.1c0,0,0.1,0,0.1,0.1c0,0,0,0,0,0.1
	c0,0.1,0,0.1,0,0.1c-0.4,0.1-0.7,0-1,0L31,14.6c-1.3-0.1-2.5-0.2-3.8,0c-0.3,0.1-0.6,0.1-0.9,0.2c-0.2,0.1-0.3,0.1-0.4,0.2
	c0,0-0.1,0-0.1,0.1c0,0,0,0,0,0c0,0,0,0,0,0c0,0,0,0,0,0c0.5,0.2,1.2,0.2,1.8,0.2l15.2-0.1l30.4-0.1l15.2,0l7.6,0c0.3,0,0.6,0,1,0
	c0.1,0,0.2,0,0.3,0c0.1,0,0.1,0,0.3,0.1C97.6,15.4,97.7,15.7,97.6,15.8z"/>
<path class="st1" d="M25.8,15.1C25.8,15.1,25.8,15.1,25.8,15.1C25.8,15.1,25.8,15.1,25.8,15.1C25.8,15.1,25.8,15.1,25.8,15.1z"/>
<path class="st1" d="M32.8,14.6L32.8,14.6C32.9,14.7,32.9,14.6,32.8,14.6z"/>
<path class="st1" d="M97.1,15.9c-0.1,0-0.1,0-0.2,0c-0.3,0-0.6,0-0.9,0h-2.8c0.5,0,1.1-0.1,1.6-0.1c0.6-0.1,1.3-0.1,1.9-0.2
	c0.1,0,0.3-0.1,0.4-0.1l0,0c0,0-0.1,0.1-0.1,0.1C97,15.5,97,15.8,97.1,15.9C97.1,15.9,97.1,15.9,97.1,15.9z"/>
<line class="st3" x1="28.6" y1="13.1" x2="28.6" y2="13.1"/>
</svg>
