<?xml version="1.0" encoding="utf-8"?>
<!-- Generator: Adobe Illustrator 25.0.0, SVG Export Plug-In . SVG Version: 6.00 Build 0)  -->
<svg version="1.1" id="Layer_1" xmlns="http://www.w3.org/2000/svg" xmlns:xlink="http://www.w3.org/1999/xlink" x="0px" y="0px"
	 viewBox="0 0 100 20" style="enable-background:new 0 0 100 20;" xml:space="preserve">
<style type="text/css">
	.st0{fill:#F97316;}
	.st1{fill:#FEFEFE;}
	.st2{fill:#020817;}
</style>
<path class="st0" d="M0.7,1.1h3.6c1.3,0,2.3,0.4,3.1,1.1c0.8,0.7,1.2,1.7,1.2,2.9c0,1.3-0.4,2.2-1.2,3C6.7,8.8,5.6,9.1,4.2,9.1H3.7
	V14H0.7V1.1z M3.7,3.6v3.1c0.7,0,1.1-0.1,1.5-0.4C5.4,6,5.6,5.6,5.6,5.1c0-0.6-0.2-0.9-0.5-1.2C4.8,3.7,4.4,3.6,3.7,3.6z"/>
<path class="st0" d="M10.8,1.1h5.9v2.8h-3v2.4h2.6v2.7h-2.6v2.4h3V14h-6V1.1z"/>
<path class="st0" d="M28.2,10.4c0-1.3-0.1-2.6-0.3-3.9c0,0,0,0,0,0c0,0,0-0.1,0-0.1c-0.4,0-0.7,0.1-1.1,0.1c0,0,0,0,0,0
	c0,0,0,0.1,0,0.1c0.1,1.1,0.2,2.3,0.4,3.4c0.1,0.7,0.3,1.5,0.5,2.2c0,0.1,0.1,0.2,0.1,0.3c0,0,0.1,0.1,0.2,0c0,0,0,0,0,0
	c0,0,0-0.1,0-0.1C28.2,11.7,28.3,11.1,28.2,10.4z M27.9,12.6l0.1,0.2l0.1-0.2C28.1,12.6,28,12.7,27.9,12.6z M27.9,5.9l-1,0.1v0
	c0,0,0,0.1,0,0.1l1-0.1C27.9,6,27.9,6,27.9,5.9z M27.9,5.6c0,0,0-0.1,0-0.1c0,0,0,0,0-0.1c-0.1-1.2-0.2-2.4-0.4-3.6
	c0-0.1,0-0.2-0.1-0.2c-0.1,0.1-0.1,0.1-0.2,0.1l-0.4,0c-0.1,0-0.1,0-0.2,0l0.1,0.9c0,0-0.1,0.1-0.2,0.1c0.1,1,0.2,1.9,0.3,2.9
	c0,0,0,0,0,0c0,0,0,0.1,0,0.1C27.1,5.7,27.5,5.7,27.9,5.6z M27.2,1.9C27.2,1.9,27.3,1.9,27.2,1.9c0.1-0.1,0.1,0,0.1,0
	c0,0.3,0.1,0.7,0.1,1c0.1,0.8,0.2,1.7,0.3,2.5c0,0,0,0,0,0.1l-0.1,0c0-0.3-0.1-0.5-0.1-0.8C27.4,3.8,27.3,2.9,27.2,1.9
	C27.2,2,27.2,2,27.2,1.9z M27.1,1.3c0-0.1,0-0.1,0-0.2h-0.5c0,0.1,0,0.1,0,0.2c0,0,0,0.1,0,0.1c0,0,0,0,0,0c0.1,0,0.3,0,0.4,0
	c0,0,0,0,0,0C27.1,1.4,27.1,1.3,27.1,1.3z M26.5,6.1c0-0.1,0-0.2,0-0.3c0,0,0,0,0,0c-0.1-1-0.2-2-0.3-2.9c0-0.1,0-0.2,0-0.2
	c0,0,0.1-0.1,0.2-0.1c0-0.2,0-0.3-0.1-0.5c-0.1,0-0.1,0-0.2,0c-0.2,0.1-0.3,0.2-0.2,0.5L26,4.1c0.1,0.8,0.2,1.6,0.3,2.5
	c0,0.1,0.1,0.2,0.2,0.1v0C26.5,6.5,26.5,6.3,26.5,6.1z M26.3,1.4c0-0.1,0-0.2,0-0.3h-0.6v0.8c0.1-0.1,0.3-0.2,0.4-0.2
	c0,0,0-0.1,0.1-0.1C26.2,1.5,26.3,1.5,26.3,1.4L26.3,1.4z"/>
<path class="st0" d="M27.4,1.1c0-0.1,0-0.2,0-0.2l0-0.1L27,0.4l-0.5,0.1l-0.2,0.3l-0.1,0.1l0,0.1c0,0,0,0.1,0,0.1c0,0.1,0,0.2,0,0.3
	l0,0c-0.1,0-0.1,0.1-0.1,0.1c0,0-0.1,0.1-0.1,0.1c-0.2,0-0.3,0.1-0.4,0.2l0,0c-0.1,0.1-0.2,0.3-0.1,0.6l0.1,1.2v3.5l0.1,1.4
	l-3.7-7.5h-3V14H22V8.3L22,6.7l3.7,7.3h3V1.1H27.4z M26.7,0.7c0.1,0,0.2,0,0.2,0C27,0.8,27,0.8,27.1,0.8c0,0,0,0,0,0.1
	c0,0.1,0,0.1,0,0.2c0,0.1,0,0.1,0,0.2c0,0,0,0.1,0,0.1c0,0,0,0,0,0c-0.1,0-0.3,0-0.4,0c0,0,0,0,0,0c0,0,0-0.1,0-0.1
	c0-0.1,0-0.2,0-0.2c0-0.1,0-0.1,0-0.2c0,0,0,0,0,0C26.6,0.8,26.6,0.8,26.7,0.7z M26.5,6.7c-0.1,0-0.2,0-0.2-0.1
	C26.2,5.8,26.1,5,26,4.1l-0.2-1.7c0-0.2,0.1-0.4,0.2-0.5c0.1,0,0.1,0,0.2,0c0,0.2,0,0.3,0.1,0.5c-0.1,0-0.2,0.1-0.2,0.1
	c0,0,0,0.1,0,0.2c0.1,1,0.2,2,0.3,2.9c0,0,0,0,0,0c0,0.1,0,0.2,0,0.3C26.5,6.3,26.5,6.5,26.5,6.7L26.5,6.7z M26.8,5.6
	c-0.1-1-0.2-1.9-0.3-2.9c0.1,0,0.2-0.1,0.2-0.1l-0.1-0.9c0,0,0.1,0,0.2,0l0.4,0c0.1,0,0.2-0.1,0.2-0.1c0.1,0,0.1,0.1,0.1,0.2
	c0.1,1.2,0.2,2.4,0.4,3.6c0,0,0,0,0,0.1c0,0,0,0.1,0,0.1c-0.4,0-0.7,0.1-1.1,0.1C26.8,5.7,26.8,5.7,26.8,5.6
	C26.8,5.6,26.8,5.6,26.8,5.6z M26.8,6L26.8,6l1-0.1c0,0.1,0,0.1,0,0.2l-1,0.1C26.8,6.1,26.8,6.1,26.8,6z M28,12.8l-0.1-0.2
	c0.1,0.1,0.2,0,0.2,0L28,12.8z M28.2,12.4c0,0,0,0.1,0,0.1c0,0,0,0,0,0c-0.1,0-0.2,0-0.2,0c0-0.1-0.1-0.2-0.1-0.3
	c-0.2-0.7-0.4-1.5-0.5-2.2c-0.2-1.1-0.3-2.3-0.4-3.4c0,0,0-0.1,0-0.1c0,0,0,0,0,0c0.4,0,0.7-0.1,1.1-0.1c0,0,0,0.1,0,0.1
	c0,0,0,0,0,0c0.1,1.3,0.3,2.6,0.3,3.9C28.3,11.1,28.2,11.7,28.2,12.4z"/>
<path class="st1" d="M27.1,1.4C27.1,1.4,27.1,1.4,27.1,1.4c-0.2,0.1-0.3,0.1-0.4,0.1c0,0,0,0,0,0c0,0,0-0.1,0-0.1c0-0.1,0-0.2,0-0.2
	c0-0.1,0-0.1,0-0.2c0,0,0,0,0,0c0-0.1,0.1-0.1,0.1-0.2c0.1,0,0.2,0,0.2,0C27,0.8,27,0.8,27.1,0.8c0,0,0,0,0,0.1c0,0.1,0,0.1,0,0.2
	c0,0.1,0,0.1,0,0.2C27.1,1.3,27.1,1.4,27.1,1.4z"/>
<path class="st1" d="M28.1,12.6L28,12.8l-0.1-0.2C28,12.7,28.1,12.6,28.1,12.6z"/>
<path class="st1" d="M28.2,12.4c0,0,0,0.1,0,0.1c0,0,0,0,0,0c-0.1,0-0.2,0-0.2,0c0-0.1-0.1-0.2-0.1-0.3c-0.2-0.7-0.4-1.5-0.5-2.2
	c-0.2-1.1-0.3-2.3-0.4-3.4c0,0,0-0.1,0-0.1c0,0,0,0,0,0c0.4,0,0.7-0.1,1.1-0.1c0,0,0,0.1,0,0.1c0,0,0,0,0,0c0.1,1.3,0.3,2.6,0.3,3.9
	C28.3,11.1,28.2,11.7,28.2,12.4z"/>
<path class="st1" d="M26.5,6.1l-0.1,0l0.1-0.3C26.4,5.8,26.5,6,26.5,6.1z"/>
<path class="st1" d="M26.3,2.5c-0.1,0-0.2,0.1-0.2,0.1c0-0.3-0.1-0.6-0.1-0.6l0,0c0.1,0,0.1,0,0.2,0C26.3,2.1,26.3,2.3,26.3,2.5z"/>
<path class="st1" d="M27.1,1.4C27.1,1.4,27.1,1.4,27.1,1.4c-0.2,0.1-0.3,0.1-0.4,0.1c0,0,0,0,0,0c0,0,0-0.1,0-0.1c0,0,0,0,0,0l0.2,0
	c0.1,0,0.2,0,0.3,0h0C27.1,1.3,27.1,1.4,27.1,1.4z"/>
<path class="st1" d="M27.9,5.6c0,0,0-0.1,0-0.1c0,0,0,0,0-0.1c-0.1-1.2-0.2-2.4-0.4-3.6c0-0.1,0-0.2-0.1-0.2
	c-0.1,0.1-0.1,0.1-0.2,0.1l-0.4,0c-0.1,0-0.1,0-0.2,0l0.1,0.9c0,0-0.1,0.1-0.2,0.1c0.1,1,0.2,1.9,0.3,2.9c0,0,0,0,0,0
	c0,0,0,0.1,0,0.1C27.1,5.7,27.5,5.7,27.9,5.6z M27.2,1.9C27.2,1.9,27.3,1.9,27.2,1.9c0.1-0.1,0.1,0,0.1,0c0,0.3,0.1,0.7,0.1,1
	c0.1,0.8,0.2,1.7,0.3,2.5c0,0,0,0,0,0.1l-0.1,0c0-0.3-0.1-0.5-0.1-0.8C27.4,3.8,27.3,2.9,27.2,1.9C27.2,2,27.2,2,27.2,1.9z"/>
<path class="st0" d="M27.7,5.5l-0.1,0c0-0.3-0.1-0.5-0.1-0.8c-0.1-0.9-0.2-1.8-0.3-2.7c0,0,0,0,0-0.1c0,0,0-0.1,0.1-0.1
	c0,0,0.1,0.1,0.1,0.1c0,0.3,0.1,0.7,0.1,1C27.5,3.7,27.6,4.6,27.7,5.5C27.7,5.4,27.7,5.4,27.7,5.5z"/>
<path class="st1" d="M26.5,6.7L26.5,6.7c-0.1,0.1-0.2,0-0.2-0.1C26.2,5.8,26.1,5,26,4.1l-0.2-1.7c0-0.2,0.1-0.4,0.2-0.5
	c0.1,0,0.1,0,0.2,0c0,0.2,0,0.3,0.1,0.5c-0.1,0-0.2,0.1-0.2,0.1c0,0,0,0.1,0,0.2c0.1,1,0.2,2,0.3,2.9c0,0,0,0,0,0c0,0.1,0,0.2,0,0.3
	C26.5,6.3,26.5,6.5,26.5,6.7z"/>
<path class="st1" d="M27.9,6.1l-1,0.1c0-0.1,0-0.1,0-0.1v0l1-0.1C27.9,6,27.9,6,27.9,6.1z"/>
<path class="st1" d="M26.7,5.7c0,0,0-0.1,0-0.1c0,0,0,0,0,0l1.1-0.1c0,0,0,0.1,0,0.1C27.5,5.7,27.1,5.7,26.7,5.7z"/>
<path class="st1" d="M28,6.5l-1.1,0.1c0,0,0-0.1,0-0.1c0,0,0,0,0,0c0.4,0,0.7-0.1,1.1-0.1C27.9,6.4,27.9,6.5,28,6.5z"/>
<path class="st1" d="M28.1,12.6L28,12.8l-0.1-0.2C28,12.7,28.1,12.6,28.1,12.6z"/>
<path class="st1" d="M27.9,12.4l0.2,0.1c-0.1,0-0.2,0-0.2,0c0-0.1-0.1-0.2-0.1-0.3l0.3,0.2C28.1,12.4,28,12.3,27.9,12.4
	C27.9,12.3,27.9,12.4,27.9,12.4z"/>
<g>
	<path class="st2" d="M30.2,1.1h3.1l1.6,5.7c0.3,1.1,0.5,2.1,0.6,2.9h0C35.6,9,35.7,8.4,35.8,8l1.8-6.9h3.1L36.9,14h-2.7L30.2,1.1z"
		/>
	<path class="st2" d="M42.3,1.1h5.9v2.8h-3v2.4h2.6v2.7h-2.6v2.4h3V14h-6V1.1z"/>
	<path class="st2" d="M50.6,1.1h3l3.7,7.5l-0.1-1.4V1.1h2.9V14h-3l-3.7-7.3l0.1,1.6V14h-2.9V1.1z"/>
	<path class="st2" d="M61.9,1.1h7v3h-2v10h-3v-10h-2V1.1z"/>
	<path class="st2" d="M74.8,14.3c-1.6,0-2.8-0.6-3.6-1.8C70.4,11.4,70,9.6,70,7.4c0-2.1,0.4-3.7,1.2-4.9c0.8-1.2,2-1.7,3.4-1.7
		c1.6,0,2.8,0.6,3.6,1.8c0.8,1.2,1.2,2.8,1.2,5s-0.4,3.9-1.2,5.1C77.5,13.7,76.3,14.3,74.8,14.3z M74.7,3.7c-1.1,0-1.6,1.2-1.6,3.7
		c0,1.6,0.1,2.7,0.4,3.2c0.3,0.5,0.7,0.8,1.2,0.8c0.5,0,1-0.3,1.3-0.8c0.3-0.5,0.4-1.6,0.4-3.1C76.4,4.9,75.8,3.7,74.7,3.7z"/>
	<path class="st2" d="M81.7,1.1h3.4c1.4,0,2.5,0.4,3.3,1.1c0.8,0.7,1.2,1.7,1.2,2.9c0,0.6-0.2,1.2-0.5,1.8c-0.3,0.6-0.7,1-1.3,1.3
		l2.3,5.8h-3.1l-2.4-5.9h0V14h-2.9V1.1z M84.6,3.6v3.1c1.3,0,1.9-0.5,1.9-1.4c0-0.6-0.1-1-0.5-1.3C85.8,3.8,85.3,3.6,84.6,3.6z"/>
	<path class="st2" d="M89.8,1.1h3.3c0.7,1.9,1.3,3.3,1.6,4.3h0c0.3-1,0.9-2.5,1.6-4.3h3.4l-3.5,7.1V14h-3V8.2L89.8,1.1z"/>
</g>
<path class="st2" d="M27.1,1.4C27.1,1.4,27.1,1.4,27.1,1.4c-0.2,0.1-0.3,0.1-0.4,0.1c0,0,0,0,0,0c0,0,0-0.1,0-0.1c0-0.1,0-0.2,0-0.2
	c0-0.1,0-0.1,0-0.2c0,0,0,0,0,0c0-0.1,0.1-0.1,0.1-0.2c0.1,0,0.2,0,0.2,0C27,0.8,27,0.8,27.1,0.8c0,0,0,0,0,0.1c0,0.1,0,0.1,0,0.2
	c0,0.1,0,0.1,0,0.2C27.1,1.3,27.1,1.4,27.1,1.4z"/>
<path class="st2" d="M28.2,12.4c0,0,0,0.1,0,0.1c0,0,0,0,0,0c-0.1,0-0.2,0-0.2,0c0-0.1-0.1-0.2-0.1-0.3c-0.2-0.7-0.4-1.5-0.5-2.2
	c-0.2-1.1-0.3-2.3-0.4-3.4c0,0,0-0.1,0-0.1c0,0,0,0,0,0c0.4,0,0.7-0.1,1.1-0.1c0,0,0,0.1,0,0.1c0,0,0,0,0,0c0.1,1.3,0.3,2.6,0.3,3.9
	C28.3,11.1,28.2,11.7,28.2,12.4z"/>
<path class="st2" d="M27.9,5.6c0,0,0-0.1,0-0.1c0,0,0,0,0-0.1c-0.1-1.2-0.2-2.4-0.4-3.6c0-0.1,0-0.2-0.1-0.2
	c-0.1,0.1-0.1,0.1-0.2,0.1l-0.4,0c-0.1,0-0.1,0-0.2,0l0.1,0.9c0,0-0.1,0.1-0.2,0.1c0.1,1,0.2,1.9,0.3,2.9c0,0,0,0,0,0
	c0,0,0,0.1,0,0.1C27.1,5.7,27.5,5.7,27.9,5.6z M27.2,1.9C27.2,1.9,27.3,1.9,27.2,1.9c0.1-0.1,0.1,0,0.1,0c0,0.3,0.1,0.7,0.1,1
	c0.1,0.8,0.2,1.7,0.3,2.5c0,0,0,0,0,0.1l-0.1,0c0-0.3-0.1-0.5-0.1-0.8C27.4,3.8,27.3,2.9,27.2,1.9C27.2,2,27.2,2,27.2,1.9z"/>
<path class="st2" d="M26.5,6.7L26.5,6.7c-0.1,0.1-0.2,0-0.2-0.1C26.2,5.8,26.1,5,26,4.1l-0.2-1.7c0-0.2,0.1-0.4,0.2-0.5
	c0.1,0,0.1,0,0.2,0c0,0.2,0,0.3,0.1,0.5c-0.1,0-0.2,0.1-0.2,0.1c0,0,0,0.1,0,0.2c0.1,1,0.2,2,0.3,2.9c0,0,0,0,0,0c0,0.1,0,0.2,0,0.3
	C26.5,6.3,26.5,6.5,26.5,6.7z"/>
<path class="st2" d="M27.9,6.1l-1,0.1c0-0.1,0-0.1,0-0.1v0l1-0.1C27.9,6,27.9,6,27.9,6.1z"/>
<path class="st2" d="M28.1,12.6L28,12.8l-0.1-0.2C28,12.7,28.1,12.6,28.1,12.6z"/>
<path class="st2" d="M27.7,13.1c0.6-0.2,1.3-0.2,1.9-0.1c0.6,0.1,1.2,0.3,1.8,0.5c0.3,0.1,0.6,0.2,0.9,0.4c0.1,0.1,0.3,0.1,0.4,0.2
	c0.1,0,0.1,0.1,0.2,0.1c0,0,0.1,0,0.1,0.1c0,0,0,0,0.1,0.1c0,0.1,0,0.1,0,0.1c-0.4,0.1-0.7,0-1,0l-0.9-0.1c-1.3-0.1-2.5-0.2-3.8,0
	c-0.3,0.1-0.6,0.1-0.9,0.3c-0.1,0.1-0.3,0.1-0.4,0.2c-0.1,0-0.1,0.1-0.1,0.1c0,0,0-0.1,0,0c0.5,0.2,1.2,0.2,1.8,0.2l15.2-0.1
	L73.3,15l15.2,0l7.6,0c0.3,0,0.6,0,1,0c0.1,0,0.2,0,0.3,0c0.1,0,0.1,0,0.3,0.1c0.1,0,0.1,0.4,0.1,0.4c0,0.1-0.1,0.1-0.1,0.1
	c-0.1,0.1-0.1,0-0.1,0.1c-0.2,0.1-0.4,0.1-0.5,0.1c-0.6,0.1-1.3,0.2-1.9,0.2c-1.3,0.1-2.5,0.2-3.8,0.3L78,17.2
	c2.5,0.2,5.1,0.2,7.6,0.2l1.9,0c0.6,0,1.3,0,1.9,0.1c0.2,0,0.3,0.1,0.5,0.1c0.1,0.1,0.3,0.2,0.3,0.4c0,0.4-0.3,0.6-0.6,0.8
	c-0.5,0.4-1.1,0.6-1.8,0.7c0.6-0.1,1.2-0.3,1.7-0.7c0.2-0.2,0.5-0.4,0.5-0.7c-0.1-0.3-0.5-0.4-0.7-0.4c-0.6-0.1-1.3-0.1-1.9,0
	l-1.9,0c-2.5,0-5.1,0-7.6-0.1l-0.5,0c-0.2,0-0.3,0-0.5-0.1c0,0-0.1-0.1-0.1-0.1c0-0.1,0-0.2,0.1-0.2c0,0,0.1,0,0.1-0.1
	c0,0,0.1,0,0.1,0l0.2,0l0.5-0.1c0.6-0.1,1.3-0.1,1.9-0.2l3.8-0.3l7.6-0.5c1.3-0.1,2.5-0.2,3.8-0.3c0.6-0.1,1.3-0.1,1.9-0.2
	c0.1,0,0.3-0.1,0.4-0.1c0,0,0,0,0,0c0,0-0.1,0.1-0.1,0.1c-0.1,0,0,0.3,0.1,0.4c0.1,0.1,0.1,0,0,0c-0.1,0-0.1,0-0.2,0
	c-0.3,0-0.6,0-0.9,0l-7.6,0l-15.2,0l-30.4-0.1l-15.2-0.1c-0.3,0-0.6,0-1-0.1c-0.3-0.1-0.6-0.1-1-0.2c0,0-0.1-0.1-0.1-0.2
	c0-0.1,0-0.2,0.1-0.2c0.1-0.1,0.2-0.1,0.2-0.2c0.2-0.1,0.3-0.1,0.5-0.2c0.3-0.1,0.6-0.2,0.9-0.2c1.3-0.2,2.6,0,3.8,0.1
	c0.6,0.1,1.3,0.2,1.8,0.2c0,0.1,0,0-0.1-0.1c-0.1,0-0.1-0.1-0.2-0.1c-0.1-0.1-0.3-0.1-0.4-0.2c-0.3-0.1-0.6-0.3-0.9-0.4
	c-0.6-0.2-1.2-0.5-1.8-0.6C28.9,13,28.3,12.9,27.7,13.1z"/>
</svg>
